<svg width="171" height="60" viewBox="0 0 171 60" fill="none" xmlns="http://www.w3.org/2000/svg">
<g clip-path="url(#clip0_101:1256)">
<path d="M69.3311 41.5049H73.6734V42.5289H70.3958V44.3471H73.1306V45.3711H70.3958V47.3774H73.6734V48.4014H69.3311V41.5049Z" fill="white"/>
<path d="M77.8276 43.1348C78.2869 43.1348 78.6627 43.2393 78.9132 43.4273C79.1637 43.6154 79.3516 43.8662 79.456 44.2006C79.5604 44.5141 79.6021 44.8903 79.6021 45.2664V48.4221H78.5792V45.3291C78.5792 45.0783 78.5374 44.8485 78.4748 44.6604C78.4121 44.4723 78.2869 44.3051 78.1408 44.2006C77.9737 44.0961 77.765 44.0334 77.4727 44.0543C77.2013 44.0543 76.9717 44.117 76.7629 44.2215C76.5541 44.326 76.408 44.4723 76.2827 44.6604C76.1575 44.8485 76.1157 45.0574 76.1157 45.2664V48.4012H75.0928V43.2184H76.1157V44.0334C76.2827 43.7826 76.5124 43.5736 76.8047 43.3856C77.1387 43.2184 77.4727 43.1348 77.8276 43.1348Z" fill="white"/>
<path d="M81.7111 49.2792C81.8989 49.4255 82.1495 49.5509 82.4417 49.6344C82.734 49.718 83.0263 49.7807 83.3186 49.7807C83.8405 49.7807 84.258 49.6553 84.5503 49.3837C84.8426 49.1329 84.9678 48.7358 84.9678 48.2133V47.5864C84.8843 47.7536 84.7382 47.8999 84.5712 48.0252C84.4041 48.1715 84.1954 48.276 83.9657 48.3805C83.7361 48.4641 83.5064 48.5059 83.2559 48.5059C82.7758 48.5059 82.3374 48.3805 81.9616 48.1506C81.5649 47.9208 81.2727 47.6073 81.043 47.1893C80.8134 46.7713 80.709 46.3116 80.709 45.7891C80.709 45.2666 80.8134 44.8069 81.043 44.3889C81.2727 43.9918 81.5649 43.6574 81.9616 43.4275C82.3374 43.1977 82.7758 43.0723 83.2559 43.0723C83.6526 43.0723 84.0075 43.1559 84.2998 43.3439C84.6129 43.5111 84.8426 43.6992 84.9887 43.9082V43.1977H86.0116V48.067C86.0116 48.694 85.8864 49.1747 85.6359 49.5717C85.3853 49.9479 85.0722 50.2196 84.6547 50.4077C84.258 50.5749 83.8196 50.6794 83.3394 50.6794C82.9637 50.6794 82.6088 50.6167 82.233 50.5122C81.8781 50.3868 81.5649 50.2405 81.3562 50.0733L81.7111 49.2792ZM83.3394 44.0545C83.0263 44.0545 82.734 44.1381 82.5044 44.2844C82.2539 44.4307 82.066 44.6397 81.9198 44.9113C81.7737 45.183 81.7111 45.4756 81.7111 45.81C81.7111 46.1444 81.7737 46.4369 81.9198 46.7086C82.066 46.9803 82.2539 47.1893 82.5044 47.3356C82.7549 47.4819 83.0263 47.5655 83.3394 47.5655C83.6735 47.5655 83.9449 47.4819 84.1954 47.3356C84.4459 47.1893 84.6338 46.9803 84.7799 46.7086C84.9261 46.4369 84.9887 46.1444 84.9887 45.81C84.9887 45.4756 84.9261 45.1621 84.7799 44.9113C84.6338 44.6397 84.4459 44.4307 84.1954 44.2844C83.9657 44.1381 83.6735 44.0545 83.3394 44.0545Z" fill="white"/>
<path d="M87.3892 48.4223V41.1287H88.412V48.4223H87.3892Z" fill="white"/>
<path d="M90.5419 42.1108C90.3123 42.1108 90.1453 42.0481 90.02 41.9437C89.9157 41.8183 89.853 41.672 89.853 41.4839C89.853 41.3167 89.9157 41.1704 90.02 41.045C90.1244 40.9196 90.3123 40.8569 90.5419 40.8569C90.7715 40.8569 90.9385 40.9196 91.0638 41.045C91.1682 41.1704 91.2308 41.3167 91.2308 41.5048C91.2308 41.672 91.1682 41.8183 91.0638 41.9437C90.9385 42.0481 90.7715 42.1108 90.5419 42.1108ZM91.0638 48.4222H90.0409V43.2394H91.0638V48.4222Z" fill="white"/>
<path d="M95.5731 44.5978C95.3852 44.4097 95.1764 44.2634 94.9468 44.138C94.7172 44.0127 94.5084 43.95 94.2997 43.95C94.1535 43.95 94.0283 43.9709 93.8821 43.9918C93.7569 44.0336 93.6316 44.0753 93.5481 44.1798C93.4646 44.2634 93.402 44.3888 93.402 44.5769C93.402 44.8068 93.5064 44.974 93.7151 45.0785C93.9239 45.183 94.1744 45.2666 94.4875 45.3502C94.7589 45.4129 95.0094 45.5174 95.2808 45.6218C95.5313 45.7263 95.7401 45.8935 95.9071 46.1025C96.0741 46.3115 96.1576 46.6041 96.1576 46.9803C96.1576 47.2937 96.0741 47.5863 95.8862 47.8162C95.6984 48.0461 95.4687 48.2133 95.1764 48.3387C94.8842 48.4641 94.5919 48.5268 94.2788 48.5268C93.903 48.5268 93.5272 48.4641 93.1723 48.3178C92.8174 48.1924 92.5043 47.9416 92.2329 47.6281L92.9218 47.043C93.0888 47.2519 93.2976 47.3982 93.5272 47.5236C93.7569 47.649 94.0283 47.6908 94.3623 47.6908C94.4875 47.6908 94.6128 47.6699 94.738 47.6281C94.8633 47.5863 94.9677 47.5236 95.0512 47.4191C95.1347 47.3146 95.1764 47.1892 95.1764 47.0221C95.1764 46.8549 95.1347 46.7504 95.0303 46.6459C94.9259 46.5623 94.8007 46.4787 94.6545 46.4369C94.4875 46.3742 94.3205 46.3324 94.1326 46.2906C93.8404 46.207 93.569 46.1234 93.2976 45.998C93.0262 45.8726 92.7966 45.7263 92.6087 45.4965C92.4208 45.2875 92.3373 44.9949 92.3373 44.6187C92.3373 44.3052 92.4208 44.0545 92.5878 43.8246C92.7548 43.5947 92.9845 43.4275 93.2767 43.3021C93.569 43.1767 93.8613 43.114 94.1744 43.114C94.4875 43.114 94.8216 43.1767 95.1764 43.3021C95.5313 43.4275 95.8445 43.6365 96.0741 43.9291L95.5731 44.5978Z" fill="white"/>
<path d="M100.019 43.1348C100.479 43.1348 100.854 43.2393 101.105 43.4274C101.355 43.6155 101.543 43.8663 101.648 44.2007C101.752 44.5141 101.794 44.8903 101.794 45.2665V48.4222H100.771V45.3292C100.771 45.0784 100.729 44.8485 100.667 44.6604C100.604 44.4723 100.479 44.3052 100.333 44.2007C100.166 44.0962 99.9568 44.0335 99.6645 44.0544C99.3931 44.0544 99.1635 44.1171 98.9547 44.2216C98.746 44.3261 98.5999 44.4723 98.4746 44.6604C98.3493 44.8485 98.3076 45.0575 98.3076 45.2665V48.4013H97.2847V41.1077H98.3076V44.0544C98.4746 43.8036 98.7042 43.5946 98.9965 43.4065C99.3305 43.2184 99.6645 43.1348 100.019 43.1348Z" fill="white"/>
<path d="M108.913 44.5978C108.725 44.4097 108.516 44.2634 108.287 44.138C108.057 44.0127 107.848 43.95 107.64 43.95C107.493 43.95 107.368 43.9709 107.222 43.9918C107.097 44.0336 106.971 44.0753 106.888 44.1798C106.804 44.2634 106.742 44.3888 106.742 44.5769C106.742 44.8068 106.846 44.974 107.055 45.0785C107.264 45.183 107.514 45.2666 107.827 45.3502C108.099 45.4129 108.349 45.5174 108.621 45.6218C108.871 45.7263 109.08 45.8935 109.247 46.1025C109.414 46.3115 109.498 46.6041 109.498 46.9803C109.498 47.2937 109.414 47.5863 109.226 47.8162C109.038 48.0461 108.809 48.2133 108.516 48.3387C108.224 48.4641 107.932 48.5268 107.619 48.5268C107.243 48.5268 106.867 48.4641 106.512 48.3178C106.157 48.1924 105.844 47.9416 105.573 47.6281L106.262 47.043C106.429 47.2519 106.637 47.3982 106.867 47.5236C107.097 47.649 107.368 47.6908 107.702 47.6908C107.827 47.6908 107.953 47.6699 108.078 47.6281C108.203 47.5863 108.308 47.5236 108.391 47.4191C108.475 47.3146 108.516 47.1892 108.516 47.0221C108.516 46.8549 108.475 46.7504 108.37 46.6459C108.266 46.5623 108.141 46.4787 107.994 46.4369C107.827 46.3742 107.66 46.3324 107.473 46.2906C107.18 46.207 106.909 46.1234 106.637 45.998C106.366 45.8726 106.136 45.7263 105.949 45.4965C105.761 45.2875 105.677 44.9949 105.677 44.6187C105.677 44.3052 105.761 44.0545 105.928 43.8246C106.095 43.5947 106.324 43.4275 106.617 43.3021C106.909 43.1767 107.201 43.114 107.514 43.114C107.827 43.114 108.161 43.1767 108.516 43.3021C108.871 43.4275 109.184 43.6365 109.414 43.9291L108.913 44.5978Z" fill="white"/>
<path d="M113.36 43.1348C113.819 43.1348 114.237 43.2393 114.592 43.4691C114.947 43.699 115.239 44.0125 115.448 44.4096C115.656 44.8067 115.761 45.2664 115.761 45.8098C115.761 46.3323 115.656 46.792 115.448 47.1891C115.239 47.5862 114.947 47.9206 114.592 48.1504C114.237 48.3803 113.819 48.5057 113.381 48.5057C113.005 48.5057 112.671 48.4221 112.379 48.2758C112.086 48.1295 111.836 47.9415 111.669 47.7325V50.5747H110.646V43.2184H111.669V43.9707C111.815 43.7617 112.045 43.5527 112.358 43.3856C112.671 43.2393 113.005 43.1348 113.36 43.1348ZM113.214 44.0752C112.901 44.0752 112.629 44.1588 112.4 44.3051C112.17 44.4514 111.982 44.6604 111.836 44.9321C111.711 45.1828 111.627 45.4963 111.627 45.8307C111.627 46.1651 111.69 46.4577 111.836 46.7084C111.961 46.9801 112.149 47.1891 112.4 47.3354C112.629 47.4817 112.922 47.5653 113.214 47.5653C113.506 47.5653 113.798 47.4817 114.028 47.3354C114.258 47.1891 114.446 46.9801 114.592 46.7084C114.717 46.4368 114.8 46.1442 114.8 45.8307C114.8 45.4963 114.738 45.2037 114.592 44.9321C114.466 44.6813 114.279 44.4723 114.028 44.3051C113.798 44.1588 113.527 44.0752 113.214 44.0752Z" fill="white"/>
<path d="M121.314 47.7326C121.084 47.9416 120.813 48.1088 120.437 48.276C120.061 48.4432 119.686 48.5059 119.289 48.5059C118.746 48.5059 118.266 48.4014 117.869 48.1715C117.452 47.9416 117.139 47.6281 116.909 47.231C116.679 46.834 116.554 46.3742 116.554 45.8726C116.554 45.2875 116.679 44.8068 116.909 44.3888C117.16 43.9709 117.473 43.6574 117.869 43.4484C118.266 43.2185 118.704 43.114 119.185 43.114C119.623 43.114 120.02 43.2185 120.375 43.4275C120.729 43.6365 121.022 43.9291 121.231 44.3052C121.439 44.6814 121.544 45.1203 121.544 45.6219V46.0607H117.577C117.64 46.5205 117.828 46.8967 118.162 47.1684C118.496 47.44 118.892 47.5863 119.393 47.5863C119.748 47.5863 120.041 47.5236 120.27 47.3773C120.5 47.2519 120.688 47.1057 120.813 46.9803L121.314 47.7326ZM119.206 44.0545C118.809 44.0545 118.475 44.138 118.183 44.3261C117.89 44.5142 117.702 44.8277 117.619 45.2666H120.521V45.2039C120.5 44.974 120.437 44.7859 120.291 44.6187C120.166 44.4515 119.999 44.3052 119.811 44.2216C119.623 44.0963 119.414 44.0545 119.206 44.0545Z" fill="white"/>
<path d="M127.472 43.2393V48.4221H126.449V47.628C126.282 47.837 126.053 48.046 125.74 48.234C125.427 48.4221 125.072 48.5266 124.675 48.5266C124.237 48.5266 123.84 48.4012 123.485 48.1713C123.13 47.9415 122.838 47.628 122.629 47.21C122.42 46.792 122.316 46.3323 122.316 45.8098C122.316 45.2873 122.42 44.8276 122.65 44.4096C122.859 44.0125 123.172 43.699 123.548 43.4691C123.923 43.2393 124.362 43.1348 124.842 43.1348C125.197 43.1348 125.51 43.2184 125.802 43.3647C126.074 43.5318 126.303 43.699 126.449 43.908V43.2184H127.472V43.2393ZM124.905 47.5653C125.218 47.5653 125.489 47.4817 125.74 47.3354C125.969 47.1891 126.157 46.9801 126.282 46.7084C126.408 46.4368 126.47 46.1442 126.47 45.8098C126.47 45.4754 126.408 45.1828 126.282 44.9321C126.157 44.6604 125.969 44.4514 125.74 44.3051C125.51 44.1588 125.218 44.0752 124.905 44.0752C124.612 44.0752 124.341 44.1588 124.09 44.3051C123.861 44.4514 123.673 44.6604 123.548 44.9321C123.422 45.2037 123.36 45.4963 123.36 45.8307C123.36 46.1651 123.422 46.4577 123.548 46.7293C123.673 47.001 123.861 47.21 124.09 47.3563C124.341 47.5026 124.612 47.5653 124.905 47.5653Z" fill="white"/>
<path d="M128.892 48.4223V41.1287H129.915V45.5592L132.253 43.2394H133.631L131.209 45.5174L133.694 48.4223H132.399L130.479 46.1861L129.915 46.7295V48.4223H128.892Z" fill="white"/>
<path d="M135.176 42.1108C134.946 42.1108 134.779 42.0481 134.654 41.9437C134.549 41.8183 134.487 41.672 134.487 41.4839C134.487 41.3167 134.549 41.1704 134.654 41.045C134.758 40.9196 134.946 40.8569 135.176 40.8569C135.405 40.8569 135.572 40.9196 135.698 41.045C135.802 41.1704 135.865 41.3167 135.865 41.5048C135.865 41.672 135.802 41.8183 135.698 41.9437C135.572 42.0481 135.405 42.1108 135.176 42.1108ZM135.698 48.4222H134.675V43.2394H135.698V48.4222Z" fill="white"/>
<path d="M139.936 43.1348C140.395 43.1348 140.771 43.2393 141.021 43.4273C141.272 43.6154 141.46 43.8662 141.564 44.2006C141.668 44.5141 141.71 44.8903 141.71 45.2664V48.4221H140.708V45.3291C140.708 45.0783 140.666 44.8485 140.604 44.6604C140.541 44.4723 140.416 44.3051 140.27 44.2006C140.103 44.0961 139.894 44.0334 139.602 44.0543C139.33 44.0543 139.101 44.117 138.892 44.2215C138.683 44.326 138.537 44.4723 138.412 44.6604C138.286 44.8485 138.245 45.0574 138.245 45.2664V48.4012H137.222V43.2184H138.245V44.0334C138.412 43.7826 138.641 43.5736 138.934 43.3856C139.247 43.2184 139.581 43.1348 139.936 43.1348Z" fill="white"/>
<path d="M143.798 49.2792C143.986 49.4255 144.236 49.5509 144.529 49.6344C144.821 49.718 145.113 49.7807 145.405 49.7807C145.927 49.7807 146.345 49.6553 146.637 49.3837C146.929 49.1329 147.055 48.7358 147.055 48.2133V47.5864C146.971 47.7536 146.825 47.8999 146.658 48.0252C146.491 48.1715 146.282 48.276 146.053 48.3805C145.823 48.4641 145.593 48.5059 145.343 48.5059C144.863 48.5059 144.424 48.3805 144.048 48.1506C143.652 47.9208 143.36 47.6073 143.13 47.1893C142.9 46.7713 142.796 46.3116 142.796 45.7891C142.796 45.2666 142.9 44.8069 143.13 44.3889C143.36 43.9918 143.652 43.6574 144.048 43.4275C144.424 43.1977 144.863 43.0723 145.343 43.0723C145.739 43.0723 146.094 43.1559 146.387 43.3439C146.7 43.5111 146.929 43.6992 147.076 43.9082V43.1977H148.099V48.067C148.099 48.694 147.973 49.1747 147.723 49.5717C147.472 49.9479 147.159 50.2196 146.742 50.4077C146.345 50.5749 145.906 50.6794 145.426 50.6794C145.051 50.6794 144.696 50.6167 144.32 50.5122C143.965 50.3868 143.652 50.2405 143.443 50.0733L143.798 49.2792ZM145.447 44.0545C145.134 44.0545 144.842 44.1381 144.612 44.2844C144.362 44.4307 144.174 44.6397 144.028 44.9113C143.881 45.183 143.819 45.4756 143.819 45.81C143.819 46.1444 143.881 46.4369 144.028 46.7086C144.174 46.9803 144.362 47.1893 144.612 47.3356C144.863 47.4819 145.134 47.5655 145.447 47.5655C145.781 47.5655 146.053 47.4819 146.303 47.3356C146.554 47.1893 146.742 46.9803 146.888 46.7086C147.034 46.4369 147.096 46.1444 147.096 45.81C147.096 45.4756 147.034 45.1621 146.888 44.9113C146.742 44.6397 146.554 44.4307 146.303 44.2844C146.074 44.1381 145.781 44.0545 145.447 44.0545Z" fill="white"/>
<path d="M152.9 45.8099C152.9 46.1443 152.984 46.4578 153.13 46.7295C153.276 47.0012 153.485 47.2102 153.735 47.3564C153.986 47.5027 154.257 47.5863 154.549 47.5863C154.883 47.5863 155.155 47.5027 155.405 47.3355C155.656 47.1684 155.844 46.9803 155.99 46.7922L156.554 47.4818C156.428 47.6699 156.261 47.8162 156.032 47.9834C155.823 48.1297 155.572 48.2551 155.301 48.3596C155.03 48.4641 154.737 48.5059 154.424 48.5059C153.944 48.5059 153.526 48.3805 153.151 48.1506C152.775 47.9207 152.462 47.5863 152.253 47.1893C152.023 46.7713 151.919 46.3324 151.919 45.8099C151.919 45.2875 152.023 44.8277 152.253 44.4306C152.483 44.0336 152.775 43.6992 153.151 43.4693C153.526 43.2394 153.965 43.114 154.424 43.114C154.904 43.114 155.322 43.2185 155.698 43.4066C156.073 43.5947 156.345 43.8455 156.533 44.1589L155.969 44.8486C155.823 44.6187 155.593 44.4306 155.322 44.2634C155.05 44.0963 154.779 44.0127 154.508 44.0127C154.194 44.0127 153.923 44.0962 153.673 44.2425C153.422 44.3888 153.234 44.5978 153.088 44.8695C152.984 45.1621 152.9 45.4756 152.9 45.8099Z" fill="white"/>
<path d="M157.514 48.4223V41.1287H158.537V48.4223H157.514Z" fill="white"/>
<path d="M163.464 46.3532V43.2393H164.487V48.4221H163.464V47.5862C163.318 47.837 163.088 48.0459 162.796 48.234C162.503 48.4221 162.148 48.5057 161.752 48.5057C161.209 48.5057 160.771 48.3176 160.437 47.9623C160.103 47.5862 159.936 47.0846 159.936 46.4367V43.2393H160.959V46.1651C160.959 46.4367 161 46.6666 161.084 46.8965C161.167 47.1264 161.293 47.2936 161.48 47.4399C161.668 47.5653 161.898 47.6489 162.169 47.6489C162.524 47.6489 162.837 47.5444 163.088 47.3145C163.338 47.0637 163.464 46.7502 163.464 46.3532Z" fill="white"/>
<path d="M168.599 43.1349C169.058 43.1349 169.476 43.2394 169.83 43.4693C170.185 43.6992 170.478 44.0127 170.686 44.4097C170.895 44.8068 170.999 45.2875 170.999 45.81C170.999 46.3324 170.895 46.8131 170.686 47.2102C170.478 47.6281 170.185 47.9416 169.83 48.1715C169.476 48.4014 169.058 48.5268 168.62 48.5268C168.244 48.5268 167.91 48.4432 167.618 48.276C167.325 48.1088 167.075 47.9416 166.908 47.7326V48.4014H165.885V41.1287H166.908V43.9918C167.054 43.7828 167.283 43.5738 167.597 43.4066C167.889 43.2185 168.223 43.1349 168.599 43.1349ZM168.453 44.0545C168.139 44.0545 167.868 44.1381 167.638 44.2844C167.409 44.4306 167.221 44.6396 167.075 44.9113C166.949 45.183 166.866 45.4756 166.866 45.81C166.866 46.1443 166.929 46.4369 167.075 46.7086C167.221 46.9803 167.388 47.1893 167.638 47.3356C167.868 47.5027 168.16 47.5654 168.453 47.5654C168.745 47.5654 169.037 47.4818 169.267 47.3356C169.496 47.1684 169.684 46.9594 169.83 46.7086C169.956 46.4369 170.039 46.1443 170.039 45.81C170.039 45.4756 169.977 45.183 169.83 44.9113C169.705 44.6396 169.517 44.4306 169.267 44.2844C169.037 44.1381 168.766 44.0545 168.453 44.0545Z" fill="white"/>
<path d="M69.4146 10.909C69.4146 10.5747 69.6859 10.303 70.02 10.303H81.7109C84.0282 10.303 85.7819 10.8672 86.9927 12.0167C88.2035 13.1661 88.809 14.8171 88.809 16.9488C88.809 18.1818 88.5793 19.2476 88.12 20.1463C87.8278 20.7314 87.452 21.233 86.9927 21.651C86.7004 21.9226 86.7422 22.4242 87.0971 22.6123C87.8069 23.0094 88.3706 23.49 88.7672 24.0752C89.3309 24.8902 89.6232 26.0397 89.6232 27.5026C89.6232 29.8223 88.976 31.5987 87.6816 32.8108C86.3873 34.023 84.5084 34.6499 82.0867 34.6499H70.0409C69.7068 34.6499 69.4354 34.3782 69.4354 34.0439V10.909H69.4146ZM79.9781 20.2089C81.8988 20.2089 82.8591 19.3103 82.8591 17.4921C82.8591 16.5308 82.6086 15.8202 82.1284 15.3814C81.6483 14.9216 80.8341 14.6917 79.665 14.6917H75.8237C75.4897 14.6917 75.2183 14.9634 75.2183 15.2978V19.6238C75.2183 19.9582 75.4897 20.2298 75.8237 20.2298H79.9781V20.2089ZM80.5418 30.303C81.6274 30.303 82.4207 30.0731 82.9218 29.6133C83.4228 29.1536 83.6733 28.3385 83.6733 27.21C83.6733 26.2487 83.4228 25.5381 82.9009 25.0992C82.379 24.6395 81.523 24.4096 80.3122 24.4096H75.8237C75.4897 24.4096 75.2183 24.6813 75.2183 25.0156V29.7178C75.2183 30.0522 75.4897 30.3239 75.8237 30.3239H80.5418V30.303Z" fill="white"/>
<path d="M93.6104 21.233H92.3578C92.0029 21.233 91.7315 20.9196 91.7733 20.5643L92.1491 17.2623C92.1908 16.9697 92.4413 16.7398 92.7336 16.7398H99.435C99.769 16.7398 100.04 17.0115 100.04 17.3459V34.0648C100.04 34.3992 99.769 34.6709 99.435 34.6709H94.8213C94.4872 34.6709 94.2158 34.3992 94.2158 34.0648V21.8391C94.2158 21.5047 93.9444 21.233 93.6104 21.233ZM94.3411 9.3208H99.4767C99.8107 9.3208 100.082 9.59248 100.082 9.92686V13.3124C100.082 13.6468 99.8107 13.9185 99.4767 13.9185H94.3411C94.0071 13.9185 93.7357 13.6468 93.7357 13.3124V9.92686C93.7357 9.59248 94.0071 9.3208 94.3411 9.3208Z" fill="white"/>
<path d="M106.158 33.3543C105.135 32.2466 104.613 30.6792 104.613 28.6312V21.9436C104.613 21.6092 104.341 21.3376 104.007 21.3376H102.901C102.567 21.3376 102.295 21.0659 102.295 20.7315V17.325C102.295 16.9906 102.567 16.719 102.901 16.719H104.007C104.341 16.719 104.613 16.4473 104.613 16.1129V13.4379C104.613 13.1662 104.801 12.9363 105.051 12.8527L109.665 11.557C110.041 11.4525 110.416 11.7451 110.416 12.1422V16.1129C110.416 16.4473 110.688 16.719 111.022 16.719H113.944C114.278 16.719 114.571 17.0115 114.55 17.3459L114.362 20.7524C114.341 21.0659 114.091 21.3167 113.757 21.3167H111.022C110.688 21.3167 110.416 21.5883 110.416 21.9227V28.1923C110.416 29.0491 110.604 29.6552 111.001 29.9896C111.377 30.324 112.003 30.4912 112.88 30.4912C113.339 30.4912 113.819 30.4285 114.279 30.324C114.654 30.2404 115.009 30.5121 115.009 30.9091V33.8349C115.009 34.0857 114.863 34.3156 114.613 34.3992C113.548 34.7963 112.274 35.0053 110.771 35.0053C108.725 35.0262 107.181 34.4619 106.158 33.3543Z" fill="white"/>
<path d="M117.869 33.2289C116.742 32.0377 116.199 30.2822 116.199 28.0043V17.346C116.199 17.0116 116.471 16.7399 116.805 16.7399H121.418C121.752 16.7399 122.024 17.0116 122.024 17.346V27.6699C122.024 28.673 122.253 29.4045 122.713 29.8851C123.172 30.3449 123.882 30.5748 124.842 30.5748C125.51 30.5748 126.157 30.4285 126.784 30.1359C127.326 29.8851 127.807 29.5508 128.203 29.1537C128.308 29.0492 128.37 28.9029 128.37 28.7357V17.3251C128.37 16.9907 128.642 16.719 128.976 16.719H133.589C133.923 16.719 134.195 16.9907 134.195 17.3251V34.044C134.195 34.3783 133.923 34.65 133.589 34.65H129.289C128.976 34.65 128.725 34.4201 128.704 34.1276C128.663 33.6887 128.162 33.4588 127.807 33.6887C126.345 34.5873 124.612 35.0262 122.629 35.0262C120.562 35.0262 118.976 34.4201 117.869 33.2289Z" fill="white"/>
<path d="M29.3944 59.9791C24.217 60.1254 13.4865 59.5193 9.54079 57.1578C9.10238 56.9488 8.68485 56.6771 8.26732 56.4263C4.88531 54.2947 2.69327 51.2853 1.73295 47.3772C0.668247 43.0721 0.188085 38.7043 0.0419493 34.2738C-0.229446 25.3709 0.772629 18.8506 1.89996 15.8203C3.54921 11.4316 6.43018 8.31766 10.5429 6.26959C11.6702 5.70533 12.8393 5.26646 14.0293 4.84848C26.9936 0.355277 46.722 0.0835946 49.8326 0C50.2084 0 50.5633 0 50.939 0.0208986C51.2731 0.0417973 51.628 0.0417973 51.9411 0.125392C51.8367 0.188088 51.7115 0.208986 51.6071 0.271682C51.4609 0.355277 51.2939 0.438871 51.1478 0.543365C51.0225 0.626959 50.939 0.752351 50.8138 0.856844C50.5424 1.04493 50.1875 1.10763 49.8743 1.25392C47.4318 2.36155 45.0518 3.57367 43.0686 5.41275C41.6907 6.66667 41.6907 7.37722 43.0477 8.65204C44.0498 9.57158 45.0936 10.5329 46.3462 11.0554C49.8743 12.5183 51.7741 15.5486 53.6112 18.558C55.8033 22.1317 56.4296 26.186 56.534 30.3448C56.6175 33.8349 56.5966 37.3668 55.9912 40.7732C56.1999 45.2874 53.7991 52.79 48.0372 56.698C43.4652 59.7492 36.576 59.791 29.3944 59.9791Z" fill="#FF6D03"/>
<path d="M51.3144 1.54653C50.9804 1.83911 50.5837 2.0481 50.2288 2.29888C49.686 2.71685 49.2685 3.19752 48.851 3.74089C48.4126 4.30515 48.1829 5.0784 48.3082 5.78895C48.4543 6.6458 49.0806 7.14736 49.7487 7.60713C50.0409 7.79522 50.2497 8.00421 50.5629 8.1714C51.2727 8.54757 51.8155 9.11184 52.4 9.6552C54.091 11.2644 55.2183 13.2498 56.0325 15.4023C57.2642 18.6834 57.974 22.0899 58.0367 25.6009C58.1202 29.697 58.1619 33.7722 57.8905 37.8475C57.6609 41.3793 57.139 44.8903 56.0534 48.2759C55.5524 49.8433 54.8008 51.4943 53.8196 53.0199C51.899 56.0502 48.7675 58.0983 45.2393 58.7252C42.9012 59.1432 36.7217 59.6657 36.3877 59.6657C38.705 58.767 41.4607 57.7221 43.6736 56.6772C45.4481 55.8412 47.0765 54.6918 48.4752 53.3125C49.9157 51.8914 51.3562 50.4911 52.3791 48.7357C53.757 46.395 54.9469 43.9708 55.4062 41.233C55.5732 40.209 55.9908 35.3605 55.9908 34.9426C55.9908 32.9781 56.116 31.0136 55.9699 29.0491C55.7402 25.9143 55.2392 22.8213 53.8405 19.9373C53.3394 18.8924 52.9845 17.8684 52.3165 16.8861C51.6276 15.9039 50.8343 15.0053 49.9783 14.1484C48.9345 13.1035 47.6401 12.5183 46.4711 11.6615C45.6569 11.0763 44.7174 10.7419 43.9032 10.1359C42.3793 9.00734 40.897 6.68759 42.6715 5.0575C43.8615 3.97077 45.1767 3.00943 46.6381 2.27798C47.4731 1.86001 48.2873 1.40024 49.1433 1.02406C49.5399 0.835974 49.9783 0.731481 50.375 0.543393C50.6046 0.4389 50.8551 0.334407 51.0848 0.229914C51.2309 0.167218 51.3979 0.0836233 51.5649 0.041826C51.7319 2.87555e-05 51.9407 0.0209274 52.1286 0.0627247C53.068 0.4389 51.5649 1.33754 51.3144 1.54653Z" fill="#F54D05"/>
<path d="M28.5176 55.4232C26.2212 55.6113 23.9874 55.4232 21.7745 55.1097C17.9749 54.5873 14.5303 53.1035 11.6911 50.4493C9.95834 48.8192 8.76837 46.7921 7.95419 44.5559C6.84773 41.5256 6.26318 38.3699 6.26318 35.1097C6.26318 32.2048 6.45107 29.3417 6.95211 26.4786C7.64104 22.5705 9.49905 19.3312 12.5262 16.7816C13.1942 16.2173 13.8205 15.6113 14.5094 15.0888C16.2631 13.7722 18.1837 12.7691 20.3131 12.1421C22.6722 11.4524 25.073 10.8255 27.5155 10.7837C29.9998 10.7419 32.5259 10.7837 34.9893 11.3897C35.72 11.5778 36.4716 11.745 37.2023 11.9331C40.626 12.7482 43.4861 14.5872 46.0957 16.907C49.5403 19.9582 51.3357 23.7826 51.8576 28.2968C52.0664 30.1358 52.2543 31.9958 52.296 33.8349C52.4004 37.9519 51.795 42.0063 50.0831 45.8098C47.8493 50.7628 43.841 53.5214 38.7054 54.7963C37.7659 55.0261 36.7638 55.1097 35.7826 55.1724C33.361 55.2769 30.9184 55.6531 28.5176 55.4232Z" fill="white"/>
<path d="M30.459 32.163C30.8556 30.2612 31.6907 28.7147 33.0268 27.419C36.9516 23.6154 44.3419 24.932 46.0747 30.9717C47.3481 35.4858 44.5507 39.2685 40.6676 40.4388C36.2627 41.7763 31.7742 39.2058 30.626 34.7544C30.5634 34.5454 30.5634 34.3155 30.5216 34.1065C30.3964 33.605 30.3337 33.5214 29.7074 33.5632C29.2064 33.5841 28.5592 33.3124 28.3505 34.1065C28.3087 34.2737 28.2878 34.42 28.2461 34.5872C27.4736 37.7429 25.5112 39.791 22.3798 40.5642C16.3673 42.048 11.8788 37.0114 12.5469 32.2048C13.0271 28.7356 16.2838 25.4545 20.1668 25.35C23.3818 25.2455 27.2231 27.2727 28.1626 31.2852C28.3922 32.2675 28.601 32.3301 29.4778 32.2466C29.7701 32.2048 30.0415 32.2048 30.459 32.163Z" fill="#0F477D"/>
<path d="M29.4986 44.2634C28.413 44.2216 27.2022 43.9499 26.0539 43.4065C25.365 43.0722 24.7178 42.6542 24.4047 41.9019C24.3003 41.6511 24.3003 41.3585 24.5508 41.1704C24.8014 40.9823 25.0727 41.0032 25.3024 41.2122C27.5571 43.4274 30.1666 43.2185 32.8806 42.3616C33.3399 42.2153 33.7365 41.9019 34.0914 41.5466C34.2793 41.3585 34.5089 41.1913 34.7386 41.0868C34.8638 41.0241 35.0726 41.0868 35.1979 41.1495C35.3858 41.254 35.4901 41.463 35.4484 41.7138C35.4066 42.1318 35.1352 42.4243 34.843 42.6542C34.1749 43.1976 33.4442 43.6991 32.5674 43.9081C31.628 44.0962 30.6677 44.2425 29.4986 44.2634Z" fill="#0F477D"/>
<path d="M20.4381 39.4775C17.1396 39.3939 14.6135 37.3249 13.9664 34.1902C13.5697 32.2466 14.0499 30.4493 15.3442 29.0073C17.8703 26.1442 22.5884 25.6844 25.4694 28.861C28.3503 32.0376 27.2647 36.907 23.4861 38.7878C22.5049 39.2894 21.4402 39.5402 20.4381 39.4775Z" fill="white"/>
<path d="M38.4129 39.4358C33.7992 39.4149 30.6677 35.068 32.1708 30.8465C32.985 28.5894 34.6969 27.3564 36.9307 26.813C40.0622 26.0398 43.3816 27.7326 44.5507 30.6793C45.8033 33.8141 44.3837 37.3668 41.3357 38.8088C40.4171 39.2268 39.415 39.4985 38.4129 39.4358Z" fill="white"/>
</g>
<defs>
<clipPath id="clip0_101:1256">
<rect width="171" height="60" fill="white"/>
</clipPath>
</defs>
</svg>
