<svg width="18" height="16" viewBox="0 0 18 16" fill="none" xmlns="http://www.w3.org/2000/svg">
<path fill-rule="evenodd" clip-rule="evenodd" d="M13.1162 0.5C14.2337 0.5 15.3087 0.941667 16.0995 1.73417C16.8912 2.525 17.3337 3.59167 17.3337 4.70833V11.2917C17.3337 13.6167 15.442 15.5 13.1162 15.5H4.88366C2.55783 15.5 0.666992 13.6167 0.666992 11.2917V4.70833C0.666992 2.38333 2.54949 0.5 4.88366 0.5H13.1162ZM14.442 5.94999L14.5087 5.88332C14.7078 5.64165 14.7078 5.29165 14.4995 5.04999C14.3837 4.92582 14.2245 4.84999 14.0587 4.83332C13.8837 4.82415 13.717 4.88332 13.5912 4.99999L9.83367 7.99999C9.35034 8.40082 8.65784 8.40082 8.167 7.99999L4.417 4.99999C4.15784 4.80832 3.7995 4.83332 3.58367 5.05832C3.35867 5.28332 3.33367 5.64165 3.5245 5.89165L3.63367 5.99999L7.42534 8.95832C7.892 9.32499 8.45784 9.52499 9.05034 9.52499C9.64117 9.52499 10.217 9.32499 10.6828 8.95832L14.442 5.94999Z" fill="#FF6D03"/>
</svg>
